<?xml version="1.0" encoding="UTF-8"?>
<svg width="38px" height="38px" viewBox="0 0 38 38" version="1.1" xmlns="http://www.w3.org/2000/svg" xmlns:xlink="http://www.w3.org/1999/xlink">
    <!-- Generator: Sketch 42 (36781) - http://www.bohemiancoding.com/sketch -->
    <title>noun_576535_cc</title>
    <desc>Created with Sketch.</desc>
    <defs>
        <filter x="-50%" y="-50%" width="200%" height="200%" filterUnits="objectBoundingBox" id="filter-1">
            <feOffset dx="0" dy="2" in="SourceAlpha" result="shadowOffsetOuter1"></feOffset>
            <feGaussianBlur stdDeviation="1.5" in="shadowOffsetOuter1" result="shadowBlurOuter1"></feGaussianBlur>
            <feColorMatrix values="0 0 0 0 0.77954932   0 0 0 0 0.77954932   0 0 0 0 0.77954932  0 0 0 0.5 0" type="matrix" in="shadowBlurOuter1" result="shadowMatrixOuter1"></feColorMatrix>
            <feMerge>
                <feMergeNode in="shadowMatrixOuter1"></feMergeNode>
                <feMergeNode in="SourceGraphic"></feMergeNode>
            </feMerge>
        </filter>
    </defs>
    <g id="Page-1" stroke="none" stroke-width="1" fill="none" fill-rule="evenodd">
        <g id="noun_576535_cc" filter="url(#filter-1)" transform="translate(3.000000, 0.000000)" fill-rule="nonzero">
            <g id="Group">
                <path d="M16,21.001 C15.6,21.001 15.199,20.9 14.834,20.699 L1.303,13.235 C0.499,12.792 0,11.936 0,11 C0,10.064 0.499,9.208 1.303,8.765 L14.835,1.301 C15.564,0.898 16.437,0.897 17.167,1.301 L30.698,8.764 C31.5,9.208 32,10.064 32,11 C32,11.936 31.5,12.792 30.696,13.235 L17.166,20.699 C16.801,20.9 16.4,21.001 16,21.001 Z M16,3 C15.932,3 15.864,3.018 15.801,3.052 C15.801,3.052 15.801,3.052 15.8,3.052 L2.269,10.516 C2.026,10.65 2,10.899 2,11 C2,11.101 2.026,11.35 2.269,11.484 L15.8,18.947 C15.926,19.016 16.071,19.017 16.199,18.947 L29.73,11.484 C29.974,11.35 30,11.101 30,11 C30,10.899 29.974,10.65 29.731,10.517 L16.2,3.052 C16.136,3.017 16.068,3 16,3 Z" id="Shape" fill="#F4B441"></path>
                <path d="M16.001,33.001 C15.601,33.001 15.2,32.9 14.834,32.699 L0.521,24.878 C0.036,24.612 -0.142,24.005 0.123,23.521 C0.387,23.037 0.995,22.859 1.48,23.123 L15.797,30.946 C15.927,31.017 16.072,31.018 16.2,30.948 L30.521,23.123 C31.006,22.859 31.614,23.037 31.878,23.521 C32.142,24.005 31.964,24.613 31.48,24.878 L17.163,32.701 C16.799,32.9 16.4,33.001 16.001,33.001 Z" id="Shape" fill="#69C3BE"></path>
                <path d="M16.001,29.001 C15.601,29.001 15.2,28.9 14.834,28.699 L0.521,20.878 C0.036,20.612 -0.142,20.005 0.123,19.521 C0.387,19.037 0.995,18.859 1.48,19.123 L15.797,26.946 C15.927,27.017 16.072,27.018 16.2,26.948 L30.521,19.123 C31.006,18.858 31.614,19.037 31.878,19.521 C32.142,20.005 31.964,20.613 31.48,20.878 L17.163,28.701 C16.799,28.9 16.4,29.001 16.001,29.001 Z" id="Shape" fill="#6D7EF2"></path>
                <path d="M16.001,25.001 C15.601,25.001 15.2,24.9 14.834,24.699 L0.521,16.877 C0.036,16.612 -0.142,16.005 0.123,15.52 C0.387,15.035 0.995,14.856 1.48,15.122 L15.797,22.945 C15.927,23.015 16.072,23.017 16.2,22.947 L30.521,15.122 C31.006,14.856 31.614,15.035 31.878,15.52 C32.143,16.005 31.964,16.612 31.48,16.877 L17.163,24.701 C16.799,24.9 16.4,25.001 16.001,25.001 Z" id="Shape" fill="#6BAEE4"></path>
            </g>
        </g>
    </g>
</svg>